Coordinates
version=1
nRows=10
nColumns=40
inDegrees=yes

Units are S.I. units (second, meters, Newtons, ...)
Angles are in degrees.

endheader
time	pelvis_tilt	pelvis_list	pelvis_rotation	pelvis_tx	pelvis_ty	pelvis_tz	hip_flexion_r	hip_adduction_r	hip_rotation_r	knee_angle_r	knee_angle_r_beta	ankle_angle_r	subtalar_angle_r	mtp_angle_r	hip_flexion_l	hip_adduction_l	hip_rotation_l	knee_angle_l	knee_angle_l_beta	ankle_angle_l	subtalar_angle_l	mtp_angle_l	lumbar_extension	lumbar_bending	lumbar_rotation	arm_flex_r	arm_add_r	arm_rot_r	elbow_flex_r	pro_sup_r	wrist_flex_r	wrist_dev_r	arm_flex_l	arm_add_l	arm_rot_l	elbow_flex_l	pro_sup_l	wrist_flex_l	wrist_dev_l
      2.46000000	     -0.43414772	      1.37434963	      1.71611757	      0.27551785	      0.95501094	      1.54866827	     -5.21499751	     -0.27715999	    -23.55954578	    -14.99037000	     -0.26163131	     10.05634981	      2.18533054	    -10.77809066	     24.00344069	      3.66430158	     22.12228332	     -9.36136525	     -0.16338665	     -4.61762537	      0.81486306	      5.88145056	     -5.54706497	     -2.09245632	      7.19840826	     11.60998618	    -12.98788127	     -9.86639334	     24.03663480	     89.95437384	      0.00000000	      0.00000000	     -7.27475844	     10.75989545	      3.84796346	     16.57516702	     89.95437384	      0.00000000	      0.00000000
      2.47000000	     -0.46282545	      1.34251016	      1.42517105	      0.28247009	      0.95429334	      1.54816916	     -5.62302748	     -0.34062728	    -23.43715215	    -15.01494893	     -0.26206030	     10.25425638	      2.31408717	    -10.76398179	     24.36031748	      3.82861257	     22.06352551	     -9.96515680	     -0.17392480	     -4.85619919	      1.31733453	      5.83535750	     -5.50548976	     -2.10571413	      7.50491694	     11.60455582	    -12.93855332	     -9.87723902	     24.35149794	     89.95437384	      0.00000000	      0.00000000	     -7.47901425	     10.79681762	      3.86644572	     16.45729588	     89.95437384	      0.00000000	      0.00000000
      2.48000000	     -0.49831050	      1.32182289	      1.09750157	      0.28949537	      0.95355389	      1.54771254	     -5.99243753	     -0.45080747	    -23.29120667	    -15.10144422	     -0.26356992	     10.38746195	      2.45050196	    -10.72993613	     24.62409726	      3.98250717	     21.82705256	    -10.56200844	     -0.18434182	     -4.91226594	      1.69256429	      5.75236951	     -5.44716231	     -2.13234092	      7.75623530	     11.61113608	    -12.81111997	     -9.84339440	     24.67672401	     89.95437384	      0.00000000	      0.00000000	     -7.67189684	     10.86755254	      3.85365119	     16.25549621	     89.95437384	      0.00000000	      0.00000000
      2.49000000	     -0.48763908	      1.31971597	      0.81677937	      0.29650218	      0.95293736	      1.54720390	     -6.45664162	     -0.55955924	    -23.04969363	    -15.11896086	     -0.26387565	     10.44955371	      2.95629631	    -10.79612077	     24.88919264	      4.12858135	     21.68942433	    -11.35845093	     -0.19824237	     -4.76386697	      2.26140974	      5.59478957	     -5.44493693	     -2.17964193	      7.94052330	     11.60021415	    -12.69932620	     -9.68596558	     25.01544024	     89.95437384	      0.00000000	      0.00000000	     -7.80588810	     10.94244895	      3.81697753	     15.95207772	     89.95437384	      0.00000000	      0.00000000
      2.50000000	     -0.59880444	      1.32465406	      0.49902454	      0.30381749	      0.95208628	      1.54643724	     -6.75978863	     -0.72234472	    -23.00813873	    -15.25020739	     -0.26616633	     10.44638378	      2.93453751	    -10.71037334	     25.05559276	      4.21251802	     21.34724237	    -11.84116284	     -0.20666728	     -4.75203249	      2.40500280	      5.49688290	     -5.29877869	     -2.23485430	      8.23618868	     11.49356952	    -12.60586025	     -9.63442203	     25.23833392	     89.95437384	      0.00000000	      0.00000000	     -8.09832746	     11.00405944	      3.90288940	     16.03848368	     89.95437384	      0.00000000	      0.00000000
      2.51000000	     -0.57368262	      1.37187189	      0.22679246	      0.31143888	      0.95144968	      1.54549659	     -7.32421689	     -0.90750425	    -22.88426185	    -15.19316211	     -0.26517070	     10.53446183	      3.15651774	    -10.72542738	     25.08326487	      4.26349939	     21.13324404	    -12.49374523	     -0.21805699	     -4.55613608	      2.76015233	      5.37672865	     -5.25980938	     -2.31866497	      8.38339767	     11.45454136	    -12.48815987	     -9.48794404	     25.38215728	     89.95437384	      0.00000000	      0.00000000	     -8.30188894	     11.03781455	      4.00202035	     15.79424939	     89.95437384	      0.00000000	      0.00000000
      2.52000000	     -0.33964299	      1.46558057	      0.01297123	      0.31916204	      0.95113803	      1.54427518	     -8.19765362	     -1.19004974	    -23.17205681	    -14.93953582	     -0.26074409	     10.38555048	      4.16846677	    -11.21069674	     24.77404839	      4.15394948	     20.67699045	    -13.02492616	     -0.22732785	     -4.31665603	      3.40712967	      5.14344243	     -5.48841310	     -2.43117118	      8.36437454	     11.41129748	    -12.44114078	     -8.91656389	     25.69428427	     89.95437384	      0.00000000	      0.00000000	     -8.50372446	     11.01642657	      4.61558617	     15.63124593	     89.95437384	      0.00000000	      0.00000000
      2.53000000	     -0.43435524	      1.45175458	     -0.26904438	      0.32707499	      0.95033312	      1.54332608	     -8.50260523	     -1.37616865	    -23.16497493	    -15.17194826	     -0.26480045	     10.34987844	      4.12392615	    -11.14255009	     24.72464220	      4.23389736	     20.45458303	    -13.44409314	     -0.23464369	     -4.25734794	      3.48321757	      5.05911747	     -5.27320661	     -2.45718193	      8.59575802	     11.24887779	    -12.30303882	     -8.78755684	     25.72636462	     89.95437384	      0.00000000	      0.00000000	     -8.73601443	     11.08740733	      4.62932964	     15.52476557	     89.95437384	      0.00000000	      0.00000000
      2.54000000	     -0.45508845	      1.55117418	     -0.53796031	      0.33503474	      0.94962401	      1.54200487	     -8.97401208	     -1.69001472	    -23.20907407	    -15.20483337	     -0.26537440	     10.38283529	      4.25293108	    -11.13142528	     24.59736506	      4.17787015	     20.46586992	    -13.97435332	     -0.24389848	     -4.07845416	      3.63618350	      4.94847855	     -5.13665307	     -2.58131671	      8.77619350	     11.11818710	    -12.19028767	     -8.68925236	     25.72699758	     89.95437384	      0.00000000	      0.00000000	     -8.86405818	     11.11433018	      4.69008726	     15.26012975	     89.95437384	      0.00000000	      0.00000000
      2.55000000	     -0.22021476	      1.74060311	     -0.85519853	      0.34342282	      0.94926473	      1.54054222	     -9.74094134	     -2.18236684	    -23.31993759	    -15.29112742	     -0.26688052	     10.27494954	      5.02316349	    -11.30575369	     24.05102268	      4.01838261	     20.57498160	    -14.43661322	     -0.25196643	     -3.61646204	      3.65874718	      4.75372387	     -5.25606364	     -2.80628954	      8.92361781	     10.99103414	    -12.08197159	     -8.40228804	     25.73124203	     89.95437384	      0.00000000	      0.00000000	     -8.99013828	     11.11010235	      4.99175203	     14.96826946	     89.95437384	      0.00000000	      0.00000000
